<svg xmlns="http://www.w3.org/2000/svg" width="500" height="500" style="width:100%;height:100%">
  <defs>
    <clipPath id="a">
      <path d="M0 0h500v500H0z"/>
    </clipPath>
    <mask id="b">
      <g display="block">
        <path fill="#121331" d="M1.192-43.554l10.248 31.54c.168.516.649.866 1.192.866h33.163c1.214 0 1.719 1.554.737 2.268L33.292.74l-13.59 9.873a1.253 1.253 0 00-.455 1.401l3.872 11.915 6.376 19.625c.375 1.155-.947 2.115-1.929 1.401l-12.537-9.108L.737 25.462a1.255 1.255 0 00-1.474 0l-12.77 9.279-14.059 10.214c-.982.714-2.304-.246-1.929-1.401l5.831-17.945 4.417-13.595a1.253 1.253 0 00-.455-1.401L-33.597.518-46.532-8.88c-.982-.714-.477-2.268.737-2.268h33.163c.543 0 1.024-.35 1.192-.866l10.248-31.54c.375-1.155 2.009-1.155 2.384 0z" transform="matrix(3.45 0 0 3.45 250 249.298)"/>
        <path fill="#FFF" d="M1.192-43.554l10.248 31.54c.168.516.649.866 1.192.866h33.163c1.214 0 1.719 1.554.737 2.268L33.292.74l-13.59 9.873a1.253 1.253 0 00-.455 1.401l3.872 11.915 6.376 19.625c.375 1.155-.947 2.115-1.929 1.401l-12.537-9.108L.737 25.462a1.255 1.255 0 00-1.474 0l-12.77 9.279-14.059 10.214c-.982.714-2.304-.246-1.929-1.401l5.831-17.945 4.417-13.595a1.253 1.253 0 00-.455-1.401L-33.597.518-46.532-8.88c-.982-.714-.477-2.268.737-2.268h33.163c.543 0 1.024-.35 1.192-.866l10.248-31.54c.375-1.155 2.009-1.155 2.384 0z" transform="matrix(3.45 0 0 3.45 250 249.298)"/>
        <path stroke-linecap="round" stroke-linejoin="round" fill-opacity="0" stroke="#FFF" stroke-width="12.075" d="M254.112 99.037l35.356 108.813a4.326 4.326 0 004.112 2.988h114.413c4.188 0 5.93 5.361 2.542 7.824l-45.678 33.19-46.885 34.061a4.323 4.323 0 00-1.57 4.834l13.359 41.107 21.997 67.706c1.293 3.985-3.267 7.297-6.655 4.833l-43.253-31.422-49.307-35.829a4.329 4.329 0 00-5.086 0l-44.056 32.013-48.504 35.238c-3.388 2.464-7.948-.848-6.655-4.833l20.117-61.91 15.239-46.903a4.323 4.323 0 00-1.57-4.834l-47.938-34.827-44.625-32.424c-3.388-2.463-1.646-7.824 2.542-7.824H206.42a4.326 4.326 0 004.112-2.988l35.356-108.813c1.293-3.985 6.93-3.985 8.224 0z"/>
      </g>
    </mask>
  </defs>
  <g clip-path="url(#a)">
    <path stroke-linecap="round" stroke-linejoin="round" stroke="#FFF" stroke-width="12.075" d="M254.112 99.037l35.356 108.813a4.326 4.326 0 004.112 2.988h114.413c4.188 0 5.93 5.361 2.542 7.824l-45.678 33.19-46.885 34.061a4.323 4.323 0 00-1.57 4.834l13.359 41.107 21.997 67.706c1.293 3.985-3.267 7.297-6.655 4.833l-43.253-31.422-49.307-35.829a4.329 4.329 0 00-5.086 0l-44.056 32.013-48.504 35.238c-3.388 2.464-7.948-.848-6.655-4.833l20.117-61.91 15.239-46.903a4.323 4.323 0 00-1.57-4.834l-47.938-34.827-44.625-32.424c-3.388-2.463-1.646-7.824 2.542-7.824H206.42a4.326 4.326 0 004.112-2.988l35.356-108.813c1.293-3.985 6.93-3.985 8.224 0z" fill="none" display="block"/>
    <g mask="url(#b)" display="block">
      <path d="M151.1 405.25z" fill="none"/>
    </g>
  </g>
</svg>
