<svg xmlns="http://www.w3.org/2000/svg" width="500" height="500" style="width:100%;height:100%">
  <path stroke-linecap="round" stroke-linejoin="round" stroke="#FFF" stroke-width="12.075" d="M254.112 99.037l35.356 108.813a4.326 4.326 0 004.112 2.988h114.413c4.188 0 5.93 5.361 2.542 7.824l-45.678 33.19-46.885 34.061a4.323 4.323 0 00-1.57 4.834l13.359 41.107 21.997 67.706c1.293 3.985-3.267 7.297-6.655 4.833l-43.253-31.422-49.307-35.829a4.329 4.329 0 00-5.086 0l-44.056 32.013-48.504 35.238c-3.388 2.464-7.948-.848-6.655-4.833l20.117-61.91 15.239-46.903a4.323 4.323 0 00-1.57-4.834l-47.938-34.827-44.625-32.424c-3.388-2.463-1.646-7.824 2.542-7.824H206.42a4.326 4.326 0 004.112-2.988l35.356-108.813c1.293-3.985 6.93-3.985 8.224 0z" fill="#FFF" display="block"/>
</svg>
